HIERARCHY
ROOT Hips
{
  OFFSET -32.5998 29.0326 120.673
  CHANNELS 6 Xposition Yposition Zposition Zrotation Xrotation Yrotation
  JOINT LeftUpLeg
  {
    OFFSET 8.64259 1.95398 -2.38835
    CHANNELS 3 Zrotation Xrotation Yrotation
    JOINT LeftLeg
    {
      OFFSET 43.7702 0 0
      CHANNELS 3 Zrotation Xrotation Yrotation
      JOINT LeftFoot
      {
        OFFSET 40.6238 0 0
        CHANNELS 3 Zrotation Xrotation Yrotation
        JOINT LeftToeBase
        {
          OFFSET 12.7242 0 0
          CHANNELS 3 Zrotation Xrotation Yrotation
          End Site
          {
            OFFSET 0 0 0
          }
        }
      }
    }
  }
  JOINT RightUpLeg
  {
    OFFSET -8.2249 1.95398 -2.59336
    CHANNELS 3 Zrotation Xrotation Yrotation
    JOINT RightLeg
    {
      OFFSET 43.5653 0 0
      CHANNELS 3 Zrotation Xrotation Yrotation
      JOINT RightFoot
      {
        OFFSET 40.6238 0 0
        CHANNELS 3 Zrotation Xrotation Yrotation
        JOINT RightToeBase
        {
          OFFSET 12.7242 0 0
          CHANNELS 3 Zrotation Xrotation Yrotation
          End Site
          {
            OFFSET 0 0 0
          }
        }
      }
    }
  }
  JOINT Spine
  {
    OFFSET 0.165834 0.87714 6.61349
    CHANNELS 3 Zrotation Xrotation Yrotation
    JOINT Spine1
    {
      OFFSET 7.38963 1.71661e-005 0
      CHANNELS 3 Zrotation Xrotation Yrotation
      JOINT Spine2
      {
        OFFSET 11.9445 1.14441e-005 0
        CHANNELS 3 Zrotation Xrotation Yrotation
        JOINT Spine3
        {
          OFFSET 14.7254 4.19617e-005 0
          CHANNELS 3 Zrotation Xrotation Yrotation
          JOINT Spine4
          {
            OFFSET 10.9679 0 0
            CHANNELS 3 Zrotation Xrotation Yrotation
            JOINT RightShoulder
            {
              OFFSET 2.46616 -1.6653 3.69651
              CHANNELS 3 Zrotation Xrotation Yrotation
              JOINT RightArm
              {
                OFFSET 13.0012 0 0
                CHANNELS 3 Zrotation Xrotation Yrotation
                JOINT RightForeArm
                {
                  OFFSET 28.7848 1.62311e-005 0
                  CHANNELS 3 Zrotation Xrotation Yrotation
                  JOINT RightHand
                  {
                    OFFSET 26.5688 1.62095e-005 0
                    CHANNELS 3 Zrotation Xrotation Yrotation
                    End Site
                    {
                      OFFSET 0 0 0
                    }
                  }
                }
              }
            }
            JOINT LeftShoulder
            {
              OFFSET 2.38034 -1.29275 -3.7523
              CHANNELS 3 Zrotation Xrotation Yrotation
              JOINT LeftArm
              {
                OFFSET 16.3182 6.07031e-005 0
                CHANNELS 3 Zrotation Xrotation Yrotation
                JOINT LeftForeArm
                {
                  OFFSET 27.0901 0 0
                  CHANNELS 3 Zrotation Xrotation Yrotation
                  JOINT LeftHand
                  {
                    OFFSET 24.5451 1.51738e-005 0
                    CHANNELS 3 Zrotation Xrotation Yrotation
                    End Site
                    {
                      OFFSET 0 0 0
                    }
                  }
                }
              }
            }
            JOINT Neck
            {
              OFFSET 5.0226 -0.0266342 0
              CHANNELS 3 Zrotation Xrotation Yrotation
              JOINT Head
              {
                OFFSET 6.69364 2.86102e-005 0
                CHANNELS 3 Zrotation Xrotation Yrotation
                End Site
                {
                  OFFSET 0 0 0
                }
              }
            }
          }
        }
      }
    }
  }
}
MOTION
Frames:	14
Frame Time:	0.0416667
-13.9974 102.763 16.6842 93.5395 21.4918 75.0243 -177.64 31.9603 78.5842 -37.0338 4.69737 -1.35388 83.4035 14.0255 -0.727822 14.2616 -9.29391 5.12204 169.424 -3.2255 81.5153 -19.8832 -6.18494 -2.26371 66.1187 -3.64415 -1.98251 32.2304 -3.05947 7.4432 2.52203 8.25451 -88.0929 10.2756 5.89621 3.28148 -1.38539 6.03481 3.01824 -23.9601 4.63829 4.90246 -3.94744 4.63828 4.90245 90.9205 -19.8724 -109.198 36.0476 -14.525 -23.9448 -7.19334 -6.73731 -9.7994 -20.122 -0.571886 -1.92297 -86.4426 -45.5449 83.3423 -19.5083 -0.568773 11.1707 13.3298 0.964023 -1.81689 13.5952 1.4409 6.51678 -1.21237 13.1335 41.6296 -9.9653 8.04509 -8.89836 
-1.30022 94.715 4.26021 94.5145 21.9525 77.8719 -176.751 29.9457 80.0768 -24.2939 5.41531 -2.65635 75.327 9.31992 -1.64983 18.4357 -8.50402 7.58872 165.879 -17.0335 79.4751 -19.5559 -1.44587 -3.45722 82.5341 -14.7039 0.153808 38.5744 -3.75695 -3.65555 2.00548 8.24006 -88.7531 10.3481 4.56554 2.0815 -1.31613 4.65269 1.87821 -23.8845 3.72902 3.35827 -3.87183 3.72902 3.35826 91.4717 -19.642 -108.03 44.2571 -11.8274 -16.1976 -8.1644 -7.90388 -9.23505 -20.8268 -0.84425 -0.502417 -86.5783 -56.0394 84.7705 -21.7406 6.09506 10.3604 11.2206 -4.34886 -2.32125 9.44702 0.911388 5.27783 3.28969 13.2681 32.682 -9.85177 7.75753 -4.15512 
15.7585 92.6132 -8.3366 95.3709 27.407 79.9315 -173.672 29.0517 79.737 -40.0588 9.72041 -4.22216 69.8354 4.5473 -0.34966 14.207 -11.8387 9.04265 164.803 -18.5182 77.5776 -34.8409 0.0255377 -2.76123 65.8417 -3.47474 -1.72073 36.2315 -3.98291 1.72589 1.28441 7.84111 -88.6774 11.1511 3.17057 2.32357 -0.517978 3.26975 2.18173 -23.0536 2.32604 3.16869 -3.04093 2.32604 3.1687 90.9861 -24.2366 -107.063 51.22 -10.1764 2.14109 -7.16866 -5.73503 -9.99842 -19.1616 -0.500064 -2.2219 -87.8229 -53.7518 82.6335 -17.9147 9.93868 3.38707 10.4457 -1.23143 0.000564706 7.70968 0.734494 4.9777 8.40075 10.77 15.218 -12.4117 7.91316 -5.94826 
28.8072 93.3931 -18.9083 97.9837 31.6475 80.7311 -172.918 17.3277 77.8244 -46.6726 14.6945 -3.97927 81.8484 13.6565 2.37241 11.714 -13.5318 9.58547 172.1 7.56324 90.3027 -89.4571 -10.9212 -3.79832 63.1124 -0.614723 -1.88052 22.6955 0.221914 8.53014 0.265879 7.92418 -88.9285 11.0032 1.02611 2.04316 -0.669035 1.11502 1.99604 -23.191 0.364822 2.25699 -3.17831 0.364813 2.25698 93.3662 -22.6639 -102.364 49.3541 -2.52513 13.2132 -8.38251 -7.15003 -6.95804 -16.4561 -0.312684 -3.03856 -86.3264 -45.5415 83.531 -10.2075 0.75249 -13.0059 13.8687 4.99418 -2.77847 12.4151 1.37224 6.80909 9.85328 7.15098 -0.621385 -13.0637 7.80741 -8.0629 
39.9795 103.051 -29.2922 102.764 29.7924 86.3382 -173.354 -3.10642 87.579 -26.229 13.6836 -1.29334 62.7324 1.15885 -0.0314321 14.9954 -7.29655 2.38385 179.533 29.6877 98.5812 -103.81 2.88195 -4.05862 69.6557 -3.50954 -3.61356 20.055 1.28074 8.19367 -0.199819 8.34041 -90.2693 10.1917 -0.521012 -0.490423 -1.47922 -0.542044 -0.467036 -24.0141 -0.349534 -0.62434 -4.00142 -0.349507 -0.624336 93.0318 -20.36 -104.033 42.4635 -2.92897 17.1668 -7.79152 -7.61399 -5.45497 -16.8704 -0.280468 -3.31825 -85.4118 -37.1055 83.5742 -9.58761 -8.44195 -19.9096 16.7596 9.28764 -6.17656 16.1029 1.79465 7.18273 -1.44262 7.79514 -2.83994 -8.76079 8.55723 -9.67111 
50.4536 111.214 -39.7961 105.016 38.723 88.0431 -173.497 -9.58374 91.6513 -17.1668 21.5726 0.90752 45.5423 -8.25225 -4.88608 9.30536 -11.2729 4.13763 179.864 39.8608 101.052 -97.5745 4.67407 -3.74811 77.4481 -8.00602 -3.87816 16.8811 2.80141 7.34084 -0.941158 8.63961 -91.2962 9.55326 -2.46052 -2.37654 -2.11737 -2.56269 -2.26598 -24.6441 -1.63291 -3.00579 -4.63143 -1.63291 -3.00579 92.3204 -19.5484 -106.064 40.8006 -4.75134 23.2772 -6.21879 -6.60988 -4.70288 -15.9668 -0.130875 -4.32795 -86.68 -32.0312 80.204 -6.03215 -6.75955 -27.9367 14.0247 4.5819 0.123365 14.4254 0.966037 2.76577 -5.10883 5.80088 -7.03101 -6.11871 6.72709 -8.82263 
61.1445 112.122 -49.3273 102.664 45.8406 88.884 -173.961 -7.84327 90.2433 -9.10969 12.9291 0.308803 49.7026 -4.80733 -4.12469 10.5778 -13.5256 8.52588 179.234 43.7397 100.222 -82.9255 -1.26559 -2.82175 76.5612 -7.88587 -4.22831 19.6403 1.79072 7.15183 -1.2461 8.64449 -91.4935 9.54102 -3.15767 -2.71945 -2.12861 -3.27424 -2.57785 -24.6582 -2.19492 -3.5422 -4.64551 -2.19491 -3.5422 92.2946 -21.5062 -105.266 42.3533 -2.78929 25.6731 -6.40127 -6.91638 -4.66848 -16.6779 -0.0711746 -4.80374 -86.5283 -30.5998 80.127 -3.45383 -6.19428 -37.1728 13.425 1.23579 0.0461075 15.1914 1.07712 2.6202 -0.127156 1.76609 -16.5605 -6.97574 4.24717 -6.95651 
73.5007 106.093 -59.3598 102.576 50.3637 89.6569 -174.492 -3.23892 91.3884 -20.1175 17.7295 1.54229 58.0636 -0.685619 3.53259 18.8085 -6.3271 3.52206 178.142 40.17 101.836 -60.7454 -7.56062 -0.268634 74.7554 -7.54705 -2.54779 24.1671 0.358944 5.96893 -1.23355 8.59097 -91.537 9.64398 -3.15326 -2.80446 -2.02588 -3.2736 -2.66298 -24.5533 -2.16525 -3.6219 -4.54061 -2.16524 -3.6219 91.3005 -23.7013 -106.563 47.3946 -2.17393 25.8644 -6.29337 -3.86576 -4.61553 -16.2631 -0.0935795 -4.6118 -87.0127 -32.3887 79.6716 -3.51119 -2.70405 -41.6192 12.5657 3.20172 0.732069 15.0497 1.20664 3.79645 -2.43703 -0.800536 -22.5059 -4.31987 1.90775 -6.21797 
87.5541 95.929 -70.3807 106.322 50.823 85.9595 -166.016 -19.5267 99.1941 -21.0835 20.4279 0.0611094 91.9399 20.049 -4.55533 22.0502 -7.24657 8.85647 178.923 33.046 103.348 -40.1333 -8.82503 1.34253 73.7014 -7.85049 -2.60024 25.8142 0.187875 4.21891 -1.05107 8.74738 -91.0542 9.35471 -2.56948 -1.89929 -2.31494 -2.65056 -1.78435 -24.8512 -1.88006 -2.58357 -4.83856 -1.88006 -2.58357 92.7658 -27.4442 -102.04 49.958 -3.63286 19.1325 -6.11415 -1.33699 -2.83571 -16.6539 -0.10692 -4.52622 -87.6424 -40.6222 80.4426 -17.3312 -8.97554 -41.3663 19.8259 15.8387 -10.2207 15.0757 1.48135 5.84686 -1.14113 -2.77964 -25.1357 -4.92319 0.6453 -9.7908 
101.598 92.2424 -86.0205 101.38 50.6048 87.5887 -166.221 -28.5561 98.3641 -20.8814 19.2483 0.909212 78.3106 13.7936 2.19748 32.0034 -2.29771 9.74517 174.513 29.722 101.718 -40.3943 -6.25114 4.60758 65.898 -1.53455 -2.50084 22.5735 1.26321 5.10968 -1.17152 7.9998 -91.0754 10.8508 -2.82966 -1.87575 -0.818146 -2.90946 -1.74937 -23.358 -2.13525 -2.63936 -3.34537 -2.13521 -2.63936 92.9071 -27.9451 -101.589 47.1021 -3.27424 12.1044 -7.07432 2.1103 -3.06478 -13.3696 -0.180933 -3.72583 -89.801 -47.4349 78.4614 -19.5735 3.95266 -26.48 16.2676 16.1765 -7.88567 11.8501 1.1887 5.77649 1.0807 -3.01383 -18.8119 -7.23307 -0.0584478 -8.41757 
113.233 92.1206 -98.8286 100.58 48.9614 87.1769 -169.602 -0.754221 90.0761 -75.3162 23.8191 2.14175 64.1552 2.01876 3.51638 3.76831 -12.9186 2.1322 171.075 24.3916 100.666 -54.8341 -10.4349 5.03138 79.2768 -12.1265 -4.9425 20.7248 2.08835 4.84386 -0.184612 7.95734 -91.2919 10.9344 -0.965807 -2.49204 -0.738597 -1.0745 -2.44716 -23.2539 -0.172562 -2.66697 -3.24123 -0.172563 -2.66697 93.8579 -23.4589 -100.99 43.5316 -6.85256 -1.01313 -6.61597 -0.931014 -2.77962 -19.0735 -0.444656 -2.56842 -89.6127 -51.3134 79.6001 -19.0842 7.91318 -12.1096 11.9498 5.23122 0.277768 12.1041 1.35948 6.99523 10.424 -2.41138 0.445207 -9.15724 -2.22795 -2.99688 
124.795 100.511 -108.431 104.031 49.9319 78.5556 -175.99 28.9758 91.3092 -100.858 16.7768 3.90398 65.0889 1.68891 6.70375 1.93182 -12.0376 -0.292091 172.651 3.76503 97.3584 -38.1799 -9.38565 2.63203 67.6606 -4.1376 -2.84901 28.8615 -2.10826 8.77523 0.756588 8.29637 -90.0572 10.2936 1.48119 -0.223701 -1.37653 1.46991 -0.288704 -23.9188 1.47999 0.231899 -3.90612 1.48002 0.231905 95.051 -19.7188 -99.4684 46.1231 -5.21275 -9.11963 -9.98561 -7.55652 -11.6333 -19.6857 -0.433542 -2.68859 -88.0225 -45.218 80.7712 -12.9555 -4.41263 -2.99509 15.6977 10.6381 -0.994962 10.9409 1.25425 7.11281 2.59339 -2.84144 2.70821 -6.48318 -3.39147 3.32018 
136.532 110.218 -118.882 102.824 45.1281 73.2144 -176.541 41.2997 82.4851 -90.3351 15.3035 2.85837 70.75 5.04225 6.19527 -0.604279 -13.7726 0.210345 174.196 -7.1552 89.4479 -22.4475 -16.8878 -2.26712 50.9044 5.81296 2.69806 22.2384 1.78864 3.84181 1.45163 8.34605 -88.5474 10.1365 3.55479 2.58512 -1.53186 3.66509 2.4261 -24.07 2.61399 3.53361 -4.05739 2.61398 3.53361 93.6541 -19.2727 -102.991 47.228 -10.2666 -11.2265 -9.22505 -8.0212 -13.2196 -19.3887 -0.333326 -3.23967 -87.5758 -39.332 80.2744 -5.2308 2.09823 5.98661 12.714 3.82468 -1.71311 12.993 1.19979 5.17338 -7.33783 -1.49149 4.41939 -3.55883 -1.82783 1.48547 
146.23 113.225 -129.966 96.8205 38.1939 75.096 -176.573 45.0255 78.2816 -72.1841 12.9013 1.17359 75.8548 8.03069 3.34785 1.25513 -14.6623 2.64991 168.45 -5.44401 84.6465 -14.9983 -13.2501 1.10905 47.9373 6.43667 7.05791 32.3329 -1.76634 0.858235 2.21574 8.39177 -88.1853 10.0098 5.24072 3.16953 -1.65383 5.37506 2.93546 -24.214 4.04667 4.59809 -4.20129 4.04669 4.59808 92.821 -20.2212 -104.585 44.605 -11.2313 -11.3579 -8.48399 -5.55237 -12.9097 -18.8464 -0.222348 -3.86657 -86.7105 -46.7649 83.1474 1.19768 -1.36759 7.45306 14.9645 8.57802 -7.03042 18.0246 2.27643 8.57276 -3.69887 -0.249551 19.8165 -4.90071 -2.31493 -5.90611 
